<svg width="1080" height="1080" viewBox="0 0 1080 1080" fill="none" xmlns="http://www.w3.org/2000/svg">
<path d="M540 543.14C540 473.53 505.21 438.74 435.6 438.74C505.21 438.74 540 403.95 540 334.34C540 403.95 574.79 438.74 644.4 438.74C574.79 438.74 540 473.53 540 543.14Z" stroke="white" stroke-width="1.71" stroke-miterlimit="10"/>
<path d="M540 543.14C540 473.53 505.21 438.74 435.6 438.74C505.21 438.74 540 403.95 540 334.34C540 403.95 574.79 438.74 644.4 438.74C574.79 438.74 540 473.53 540 543.14Z" fill="white" stroke="white" stroke-width="3.99" stroke-linejoin="round"/>
<path d="M542 543.14L540 818.43L538 543.14H542Z" fill="white"/>
<path d="M540 567.19C601.154 567.19 650.73 556.615 650.73 543.57C650.73 530.525 601.154 519.95 540 519.95C478.846 519.95 429.27 530.525 429.27 543.57C429.27 556.615 478.846 567.19 540 567.19Z" stroke="white" stroke-width="1.71" stroke-miterlimit="10"/>
<path d="M540 590.81C601.154 590.81 650.73 580.235 650.73 567.19C650.73 554.145 601.154 543.57 540 543.57C478.846 543.57 429.27 554.145 429.27 567.19C429.27 580.235 478.846 590.81 540 590.81Z" stroke="white" stroke-width="1.71" stroke-miterlimit="10"/>
<path d="M540 614.43C601.154 614.43 650.73 603.855 650.73 590.81C650.73 577.765 601.154 567.19 540 567.19C478.846 567.19 429.27 577.765 429.27 590.81C429.27 603.855 478.846 614.43 540 614.43Z" stroke="white" stroke-width="1.71" stroke-miterlimit="10"/>
<path d="M540 638.06C601.154 638.06 650.73 627.485 650.73 614.44C650.73 601.395 601.154 590.82 540 590.82C478.846 590.82 429.27 601.395 429.27 614.44C429.27 627.485 478.846 638.06 540 638.06Z" stroke="white" stroke-width="1.71" stroke-miterlimit="10"/>
<path d="M540 661.68C601.154 661.68 650.73 651.105 650.73 638.06C650.73 625.015 601.154 614.44 540 614.44C478.846 614.44 429.27 625.015 429.27 638.06C429.27 651.105 478.846 661.68 540 661.68Z" stroke="white" stroke-width="1.71" stroke-miterlimit="10"/>
<path d="M540 295.52C582.692 295.52 617.3 287.918 617.3 278.54C617.3 269.162 582.692 261.56 540 261.56C497.308 261.56 462.7 269.162 462.7 278.54C462.7 287.918 497.308 295.52 540 295.52Z" stroke="white" stroke-width="1.51" stroke-miterlimit="10"/>
</svg>
